<?xml version="1.0" encoding="UTF-8" standalone="no"?>
<svg
   fill="none"
   viewBox="0 0 128 128"
   version="1.1"
   id="svg1"
   sodipodi:docname="favicon.svg"
   xml:space="preserve"
   inkscape:version="1.4 (86a8ad7, 2024-10-11)"
   xmlns:inkscape="http://www.inkscape.org/namespaces/inkscape"
   xmlns:sodipodi="http://sodipodi.sourceforge.net/DTD/sodipodi-0.dtd"
   xmlns="http://www.w3.org/2000/svg"
   xmlns:svg="http://www.w3.org/2000/svg"><defs
     id="defs1" /><sodipodi:namedview
     id="namedview1"
     pagecolor="#ffffff"
     bordercolor="#000000"
     borderopacity="0.25"
     inkscape:showpageshadow="2"
     inkscape:pageopacity="0.0"
     inkscape:pagecheckerboard="0"
     inkscape:deskcolor="#d1d1d1"
     inkscape:zoom="0.92138673"
     inkscape:cx="-637.62586"
     inkscape:cy="4.8839427"
     inkscape:window-width="3840"
     inkscape:window-height="2089"
     inkscape:window-x="-8"
     inkscape:window-y="-8"
     inkscape:window-maximized="1"
     inkscape:current-layer="svg1" /><style
     id="style1">
    path {
      fill: #1e1e1e; /* Dark gray for light mode */
    }

    @media (prefers-color-scheme: dark) {
      path {
        fill: #eaeaea; /* Soft off-white for dark mode */
      }
    }
  </style><path
     id="path1"
     style="fill:#00d455;stroke-width:1.82148"
     d="m 94.499235,35.012717 c -3.579686,0.180465 -7.447907,2.157024 -9.323683,4.9042 -0.749445,1.097608 -1.004017,1.264058 -4.549572,2.972458 -8.877648,4.277625 -19.887386,8.516876 -38.239219,14.723294 -9.316083,3.150612 -12.884763,4.59105 -16.193485,6.538339 -8.288731,4.87818 -14.708344,12.435823 -17.3660727,20.441891 -2.1222439,6.39296 -2.6590079,13.60182 -1.5307805,20.588011 0.3622982,2.24339 0.3693115,2.58744 0.062372,3.52846 -0.5138234,1.57527 -0.4922108,5.5086 0.039205,7.07652 1.5418464,4.54913 4.7616934,8.01403 9.5107984,10.23253 2.042019,0.9539 4.02962,1.5386 6.219353,1.82838 0.754864,0.0998 11.515892,0.16781 23.913324,0.15148 l 22.541144,-0.0303 0.946268,-0.50609 c 2.240206,-1.19795 3.248045,-3.59929 2.557241,-6.08749 -0.681695,-2.45541 -5.872464,-5.59258 -12.085859,-7.30462 l -1.297333,-0.35819 0.972999,-1.52366 c 0.534716,-0.83841 1.10478,-1.858 1.267038,-2.26498 0.227431,-0.57051 0.4314,-0.74129 0.892807,-0.74311 0.958565,-0.006 4.631937,-0.83526 6.563288,-1.48267 2.404119,-0.80588 5.150585,-2.11507 7.137108,-3.40015 0.90486,-0.58533 1.720653,-0.98073 1.812345,-0.87855 0.09169,0.10224 3.062669,5.4124 6.602493,11.79895 3.539827,6.38655 6.647034,11.79741 6.905442,12.02527 0.438071,0.38633 0.987099,0.41004 8.110108,0.34215 l 7.639646,-0.0731 1.07457,-0.63263 c 3.11556,-1.83142 3.08627,-6.47596 -0.0517,-8.05308 -1.33775,-0.67236 -4.19937,-1.23627 -6.52764,-1.28664 l -1.86046,-0.041 -0.381362,-1.59493 c -1.519307,-6.3399 -5.23763,-12.7726 -10.708333,-18.526188 l -2.183011,-2.29528 0.737769,-1.088831 c 2.262686,-3.336401 7.368812,-9.690429 11.567279,-14.395397 3.252738,-3.645141 15.133968,-15.433805 19.374448,-19.222969 2.34227,-2.092993 3.91187,-3.674245 4.16643,-4.198508 0.79074,-1.628395 0.0187,-6.691568 -1.4987,-9.83335 -0.97802,-2.024923 -3.42393,-4.475839 -5.39962,-5.410302 -2.54742,-1.204898 -3.86055,-1.46007 -8.16892,-1.586024 l -3.95792,-0.115834 -0.66292,-0.753807 c -1.54896,-1.764161 -4.43121,-3.153627 -7.115727,-3.428663 -0.492963,-0.05051 -0.999793,-0.06142 -1.511178,-0.03564 z" /><circle
     style="fill:#f9f9f9;stroke-width:9.13751;stroke-linecap:round"
     id="path3"
     cx="92.868149"
     cy="48.779522"
     r="14.049268" /><path
     style="fill:#ffcc00;stroke-width:10.291;stroke-linecap:round"
     d="M 59.880934,71.012039 106.48153,36.643229 66.697435,0.45108258 71.100695,21.056602 50.283555,9.3452346 55.520128,28.931845 33.893348,20.809394 Z"
     id="path2"
     sodipodi:nodetypes="cccccccc" /></svg>
