<?xml version="1.0" encoding="UTF-8" standalone="no"?>
<svg
   fill="none"
   viewBox="0 0 128 128"
   version="1.1"
   xmlns="http://www.w3.org/2000/svg"
   xmlns:svg="http://www.w3.org/2000/svg">
  <style>
    path {
      fill: #1e1e1e; /* Dark gray for light mode */
    }

    @media (prefers-color-scheme: dark) {
      path {
        fill: #eaeaea; /* Soft off-white for dark mode */
      }
    }
  </style>
  <path
     id="path1"
     style="stroke:none;stroke-width:0.121556"
     d="M 24.75 1 A 22.75 22.75 0 0 0 2 23.75 A 22.75 22.75 0 0 0 11.808594 42.408203 A 57.739223 57.739223 0 0 0 6.2617188 67 A 57.739223 57.739223 0 0 0 16.423828 99.546875 C 11.792984 101.59748 0.82727597 107.05716 0.10351562 113.19727 C -0.30214437 116.63853 0.39664067 117.52404 3.8378906 117.92969 C 5.6682206 118.14545 7.8090284 117.63804 10.011719 116.74414 C 9.0355684 118.72708 8.526715 120.68665 8.859375 122.4375 C 9.506155 125.84168 10.43957 126.47686 13.84375 125.83008 C 16.165122 125.38903 18.616816 123.66659 20.910156 121.48047 C 20.676696 122.4876 20.618389 123.46392 20.792969 124.38281 C 21.439749 127.78698 22.373164 128.42217 25.777344 127.77539 C 29.810074 127.00918 34.227766 122.38926 37.529297 118.16211 A 57.739223 57.739223 0 0 0 64 124.73828 A 57.739223 57.739223 0 0 0 90.470703 118.16211 C 93.772235 122.38926 98.189926 127.00918 102.22266 127.77539 C 105.62684 128.42217 106.56025 127.78698 107.20703 124.38281 C 107.38161 123.46392 107.3233 122.4876 107.08984 121.48047 C 109.38318 123.66659 111.83488 125.38903 114.15625 125.83008 C 117.56043 126.47686 118.49385 125.84168 119.14062 122.4375 C 119.47329 120.68665 118.96443 118.72708 117.98828 116.74414 C 120.19097 117.63804 122.33178 118.14545 124.16211 117.92969 C 127.60336 117.52404 128.30214 116.63853 127.89648 113.19727 C 127.17272 107.05716 116.20702 101.59748 111.57617 99.546875 A 57.739223 57.739223 0 0 0 121.73828 67 A 57.739223 57.739223 0 0 0 116.22656 42.382812 A 22.75 22.75 0 0 0 126 23.75 A 22.75 22.75 0 0 0 103.25 1 A 22.75 22.75 0 0 0 83.460938 12.640625 A 57.739223 57.739223 0 0 0 64 9.2617188 A 57.739223 57.739223 0 0 0 44.65625 12.746094 A 22.75 22.75 0 0 0 24.75 1 z M 26.164062 8.328125 A 16.835787 16.835787 0 0 1 43 25.164062 A 16.835787 16.835787 0 0 1 26.164062 42 A 16.835787 16.835787 0 0 1 9.328125 25.164062 A 16.835787 16.835787 0 0 1 26.164062 8.328125 z M 104.66406 8.328125 A 16.835787 16.835787 0 0 1 121.5 25.164062 A 16.835787 16.835787 0 0 1 104.66406 42 A 16.835787 16.835787 0 0 1 87.828125 25.164062 A 16.835787 16.835787 0 0 1 104.66406 8.328125 z M 27.201172 15.939453 A 11.416047 11.416047 0 0 0 15.785156 27.355469 A 11.416047 11.416047 0 0 0 27.201172 38.771484 A 11.416047 11.416047 0 0 0 38.617188 27.355469 A 11.416047 11.416047 0 0 0 27.201172 15.939453 z M 105.70117 15.939453 A 11.416047 11.416047 0 0 0 94.285156 27.355469 A 11.416047 11.416047 0 0 0 105.70117 38.771484 A 11.416047 11.416047 0 0 0 117.11719 27.355469 A 11.416047 11.416047 0 0 0 105.70117 15.939453 z M 49.173828 37.841797 A 3 3 0 0 1 51.662109 39.519531 C 51.662109 39.519531 56.034191 47.734375 62.667969 47.734375 C 69.301747 47.734375 75.638672 39.171875 75.638672 39.171875 A 3 3 0 0 1 77.546875 37.894531 A 3 3 0 0 1 78.328125 37.841797 A 3 3 0 0 1 79.798828 38.339844 A 3 3 0 0 1 80.630859 42.5 C 80.630859 42.5 73.767653 53.734375 62.667969 53.734375 C 51.568285 53.734375 46.271484 42.152344 46.271484 42.152344 A 3 3 0 0 1 47.650391 38.138672 A 3 3 0 0 1 49.173828 37.841797 z M 47.189453 58.298828 L 60.660156 58.298828 C 62.970534 58.298828 65.196194 58.501338 67.339844 58.90625 C 69.483493 59.311161 71.400696 59.990626 73.091797 60.943359 C 74.806716 61.872274 76.165646 63.145979 77.166016 64.765625 C 78.166385 66.361452 78.666016 68.361927 78.666016 70.767578 C 78.666016 72.839772 78.238319 74.603723 77.380859 76.056641 C 76.5234 77.509559 75.391609 78.686701 73.986328 79.591797 C 72.604865 80.473075 71.126696 81.105235 69.554688 81.486328 C 71.341061 81.795967 73.091721 82.367531 74.806641 83.201172 C 76.545379 84.010995 77.976242 85.237395 79.095703 86.880859 C 80.238982 88.500505 80.810547 90.667524 80.810547 93.382812 C 80.810547 96.121921 80.272997 98.410131 79.201172 100.24414 C 78.129347 102.07815 76.677761 103.54108 74.84375 104.63672 C 73.009739 105.70855 70.948669 106.47128 68.662109 106.92383 C 66.399369 107.37637 64.054469 107.60352 61.625 107.60352 L 47.189453 107.60352 L 47.189453 58.298828 z M 55.478516 64.515625 L 55.478516 78.771484 L 61.910156 78.771484 C 64.673082 78.771484 66.756829 78.19992 68.162109 77.056641 C 69.567391 75.889543 70.269531 74.019645 70.269531 71.447266 C 70.269531 68.97016 69.495456 67.194872 67.947266 66.123047 C 66.399074 65.051222 64.220719 64.515625 61.410156 64.515625 L 55.478516 64.515625 z M 55.478516 84.916016 L 55.478516 101.17188 L 62.160156 101.17188 C 63.732166 101.17188 65.280315 100.9807 66.804688 100.59961 C 68.352879 100.19469 69.626584 99.433914 70.626953 98.314453 C 71.651141 97.194992 72.164062 95.538942 72.164062 93.347656 C 72.164062 91.15637 71.734412 89.453015 70.876953 88.238281 C 70.019493 86.999728 68.865027 86.142382 67.412109 85.666016 C 65.959191 85.165831 64.327771 84.916016 62.517578 84.916016 L 55.478516 84.916016 z " />
</svg>
