<?xml version="1.0" encoding="UTF-8" standalone="no"?>
<svg
   fill="none"
   viewBox="0 0 128 128"
   version="1.1"
   id="svg1"
   sodipodi:docname="favicon.svg"
   xml:space="preserve"
   inkscape:version="1.4 (86a8ad7, 2024-10-11)"
   xmlns:inkscape="http://www.inkscape.org/namespaces/inkscape"
   xmlns:sodipodi="http://sodipodi.sourceforge.net/DTD/sodipodi-0.dtd"
   xmlns="http://www.w3.org/2000/svg"
   xmlns:svg="http://www.w3.org/2000/svg"><defs
     id="defs1" /><sodipodi:namedview
     id="namedview1"
     pagecolor="#ffffff"
     bordercolor="#000000"
     borderopacity="0.25"
     inkscape:showpageshadow="2"
     inkscape:pageopacity="0.0"
     inkscape:pagecheckerboard="0"
     inkscape:deskcolor="#d1d1d1"
     inkscape:zoom="7.3710938"
     inkscape:cx="68.850026"
     inkscape:cy="73.055643"
     inkscape:window-width="3840"
     inkscape:window-height="2089"
     inkscape:window-x="-8"
     inkscape:window-y="-8"
     inkscape:window-maximized="1"
     inkscape:current-layer="svg1" /><style
     id="style1">
    path {
      fill: #1e1e1e; /* Dark gray for light mode */
    }

    @media (prefers-color-scheme: dark) {
      path {
        fill: #eaeaea; /* Soft off-white for dark mode */
      }
    }
  </style><path
     style="fill:#00d455;stroke-width:1.95117"
     d="m 19.929528,126.05579 c -2.345644,-0.31041 -4.474741,-0.93614 -6.662152,-1.95796 C 8.1801326,121.72137 4.7304077,118.01026 3.078781,113.13723 2.5095281,111.45767 2.4859405,107.24427 3.036348,105.55684 3.365142,104.54882 3.3587245,104.17957 2.97063,101.77645 1.762073,94.292834 2.3357279,86.571635 4.6090767,79.723493 7.4560365,71.14739 14.334253,63.051585 23.213146,57.826077 26.75745,55.740141 30.57894,54.197024 40.558332,50.822087 60.216825,44.17377 72.010333,39.632968 81.520073,35.050774 c 3.798,-1.830039 4.072113,-2.009121 4.87492,-3.184878 2.296379,-3.363172 7.380247,-5.647769 11.604744,-5.214955 2.875663,0.294619 5.963793,1.782125 7.623023,3.671895 l 0.70998,0.808619 4.23956,0.123938 c 4.61512,0.134922 6.02283,0.408177 8.75164,1.698865 2.11635,1.000997 4.7359,3.625613 5.78354,5.794711 1.62548,3.365479 2.45192,8.790294 1.60488,10.534631 -0.27269,0.561591 -1.95262,2.254704 -4.46166,4.496721 -4.5424,4.058954 -17.27065,16.687126 -20.75498,20.591803 -4.497412,5.039963 -9.966101,11.846096 -12.389891,15.42005 l -0.791096,1.166505 2.338447,2.45935 c 5.86022,6.163244 9.84236,13.052771 11.46984,19.844081 l 0.40985,1.71022 1.99327,0.0431 c 2.49405,0.054 5.55794,0.65807 6.99095,1.37829 3.36137,1.68941 3.39407,6.66505 0.0567,8.62687 l -1.15203,0.6772 -8.18348,0.0781 c -7.630178,0.0727 -8.21751,0.048 -8.686772,-0.36585 -0.276807,-0.24408 -3.605719,-6.04122 -7.397582,-12.8825 -3.791862,-6.84128 -6.974659,-12.528265 -7.072882,-12.637785 -0.09822,-0.10946 -0.971643,0.313955 -1.940929,0.940955 -2.127964,1.37658 -5.070182,2.77776 -7.645476,3.64102 -2.068864,0.69351 -6.002991,1.58264 -7.029808,1.58875 -0.494259,0.002 -0.713519,0.18535 -0.957144,0.79648 -0.17381,0.43596 -0.784667,1.52748 -1.357455,2.42559 l -1.041432,1.63295 1.388839,0.38267 c 6.655792,1.83394 12.216987,5.19516 12.94722,7.82539 0.739989,2.66537 -0.341038,5.23723 -2.740748,6.52047 l -1.012965,0.54168 -24.145699,0.0325 c -13.280135,0.0175 -24.807287,-0.0552 -25.615897,-0.16213 z M 99.324476,45.116718 c 0.817154,-0.58876 1.211544,-1.416147 1.215884,-2.550778 0.003,-0.745331 -0.16742,-1.110032 -0.825656,-1.768245 -0.700861,-0.700872 -1.001611,-0.829247 -1.942673,-0.829247 -2.182238,0 -3.613036,2.098901 -2.717414,3.986288 0.837802,1.765538 2.720929,2.278005 4.269859,1.161982 z"
     id="path1" /><circle
     style="fill:#f9f9f9;stroke:none;stroke-width:9.38245;stroke-linecap:round"
     id="path2"
     cx="94.575165"
     cy="41.462784"
     r="10.913173" /><g
     id="g1"
     style="fill:#5599ff"><path
       style="fill:#5599ff;stroke:none;stroke-width:6;stroke-linecap:round"
       d="M 36.453284,54.389313 C 37.56283,54.228821 38.660154,52.43146 39.745755,52.253554 59.788326,48.969021 112.48058,27.62181 127.68242,20.816744 L 82.403609,25.805088 38.870835,51.114316 Z"
       id="path3"
       sodipodi:nodetypes="cscccc" /><path
       style="fill:#5599ff;stroke:none;stroke-width:6;stroke-linecap:round"
       d="M 100.39216,27.811341 72.919979,3.1881293 46.192995,0.21703762 23.198728,2.4419714 8.81823,31.338633 45.667415,19.690719 58.398511,41.016236 Z"
       id="path4"
       sodipodi:nodetypes="cccccccc" /></g></svg>
