<?xml version="1.0" encoding="UTF-8" standalone="no"?>
<svg
   fill="none"
   viewBox="0 0 128 128"
   version="1.1"
   id="svg1"
   xmlns="http://www.w3.org/2000/svg">
  <style>
    path { 
      fill: #2a2520; 
      transition: fill 0.3s ease;
    }
    @media (prefers-color-scheme: dark) {
      path { 
        fill: #f8f6f0; 
      }
    }
  </style>
  <path
     id="path49"
     d="m 20.863744,1.1863013 v 14.5277877 6.082079 10.643075 6.082078 12.24055 H 41.983632 V 38.521321 32.439243 21.796168 17.208209 h 52.074007 l 0.116834,-0.795368 2.249038,-15.2265397 z m 22.789259,20.6031257 0.0022,1.494119 V 32.43475 H 73.85889 c 4.822421,10e-7 8.559596,0.91707 11.216009,2.752326 2.656428,1.835268 3.985818,4.873763 3.985818,9.115254 0,4.404632 -1.206141,7.604408 -3.617342,9.602808 -1.00623,0.81693 -2.225676,1.453982 -3.637564,1.929999 -1.466463,0.494415 -3.193888,0.772077 -5.097982,0.898719 -0.655672,0.04362 -1.283099,0.110093 -1.990662,0.110093 H 20.857003 v 10.521749 h 54.900478 c 0.324876,0 0.632223,0.02434 0.950394,0.0337 1.805557,0.05318 3.508409,0.249464 5.097983,0.604389 0.80829,0.180481 1.599952,0.386327 2.352395,0.644831 2.492932,0.815667 4.473768,2.285227 5.945024,4.405968 1.471258,2.079965 2.20411,4.996935 2.20411,8.749026 0,3.752096 -0.878164,6.587297 -2.635495,8.504126 -1.716443,1.916825 -3.901984,3.220602 -6.5584,3.913919 -2.61555,0.652516 -5.272099,0.979604 -7.969388,0.979604 H 43.655248 v 9.515189 1.49412 h 30.569917 c 4.168533,0 8.194069,-0.38445 12.076532,-1.15935 0.479768,-0.0947 0.936089,-0.22416 1.404247,-0.33477 3.360203,-0.79395 6.436377,-1.97056 9.198384,-3.5814 3.146862,-1.876041 5.642782,-4.38418 7.481842,-7.524522 1.83906,-3.140341 2.75683,-7.058383 2.75683,-11.748498 0,-4.649336 -0.9794,-8.357349 -2.94106,-11.130633 -1.92078,-2.814071 -4.372667,-4.915631 -7.356023,-6.302263 -2.942493,-1.427428 -5.946782,-2.404163 -9.011905,-2.934316 2.697296,-0.652543 5.232805,-1.735376 7.603163,-3.244376 2.411208,-1.549783 4.352439,-3.567313 5.823705,-6.055117 1.47124,-2.487797 2.2041,-5.508662 2.2041,-9.056837 0,-4.119142 -0.85611,-7.544344 -2.57258,-10.276848 -1.716468,-2.77328 -4.047307,-4.95436 -6.98979,-6.544918 -2.360431,-1.327069 -4.991765,-2.326844 -7.866036,-3.033176 -0.659008,-0.161947 -1.3181,-0.324537 -2.004142,-0.453852 -3.678111,-0.693283 -7.498966,-1.040267 -11.463156,-1.040267 z M 20.863744,73.447776 v 15.666913 6.08208 11.009301 6.08433 14.5233 h 76.564093 v -15.40629 -0.61339 H 41.983632 v -4.58795 -11.009301 -6.08208 -15.666913 z" />
</svg>
