<?xml version="1.0" encoding="UTF-8" standalone="no"?>
<svg
   fill="none"
   viewBox="0 0 128 128"
   version="1.1"
   id="svg1"
   sodipodi:docname="favicon.svg"
   inkscape:version="1.4 (86a8ad7, 2024-10-11)"
   xmlns:inkscape="http://www.inkscape.org/namespaces/inkscape"
   xmlns:sodipodi="http://sodipodi.sourceforge.net/DTD/sodipodi-0.dtd"
   xmlns="http://www.w3.org/2000/svg"
   xmlns:svg="http://www.w3.org/2000/svg">
  <defs
     id="defs1" />
  <sodipodi:namedview
     id="namedview1"
     pagecolor="#ffffff"
     bordercolor="#000000"
     borderopacity="0.25"
     inkscape:showpageshadow="2"
     inkscape:pageopacity="0.0"
     inkscape:pagecheckerboard="0"
     inkscape:deskcolor="#d1d1d1"
     inkscape:zoom="2.8284271"
     inkscape:cx="-15.379572"
     inkscape:cy="99.348502"
     inkscape:window-width="1918"
     inkscape:window-height="2080"
     inkscape:window-x="-7"
     inkscape:window-y="0"
     inkscape:window-maximized="0"
     inkscape:current-layer="svg1" />
  <style
     id="style1">
        path { fill: #000; }
        @media (prefers-color-scheme: dark) {
            path { fill: #FFF; }
        }
    </style>
  <g
     id="g53"
     transform="translate(-8.1982395,0.48242375)">
    <path
       id="path49"
       style="font-weight:500;font-size:29.3333px;font-family:'FiraCode Nerd Font';-inkscape-font-specification:'FiraCode Nerd Font Medium';fill:#483e37;stroke:#000000;stroke-width:0.132171"
       d="m 34.699219,8.9140625 v 12.6289065 5.287109 9.251953 5.28711 10.640625 h 18.359375 v -10.640625 -5.28711 -9.251953 -3.988281 h 45.267578 l 0.101562,-0.691406 1.955076,-13.2363285 z" />
    <path
       id="path45"
       style="font-weight:500;font-size:29.3333px;font-family:'FiraCode Nerd Font';-inkscape-font-specification:'FiraCode Nerd Font Medium';fill:#483e37;stroke:#000000;stroke-width:0.132171"
       d="m 34.699219,71.730469 v 13.61914 5.28711 9.570311 5.28906 12.625 h 66.556641 v -13.39257 -0.53321 H 53.058594 v -3.98828 -9.570311 -5.28711 -13.61914 z" />
    <path
       id="path53"
       style="font-weight:500;font-size:29.3333px;font-family:'FiraCode Nerd Font';-inkscape-font-specification:'FiraCode Nerd Font Medium';fill:#445500;stroke:#445500;stroke-width:0.121009"
       d="m 54.509766,26.824219 0.002,1.298828 v 7.955078 h 26.255859 c 4.192096,10e-7 7.440799,0.797203 9.75,2.392578 2.309214,1.595386 3.464844,4.236729 3.464844,7.923828 0,3.828917 -1.04849,6.610461 -3.144531,8.347657 -0.874708,0.710152 -1.934766,1.263936 -3.16211,1.677734 -1.274785,0.429791 -2.776424,0.671161 -4.43164,0.78125 -0.569971,0.03792 -1.115389,0.0957 -1.730469,0.0957 h -46.82036 v 9.146484 h 47.72461 c 0.282413,0 0.549587,0.02116 0.826172,0.0293 1.569559,0.04623 3.049835,0.216857 4.43164,0.525391 0.702642,0.156891 1.390826,0.335831 2.044922,0.560547 2.167088,0.709054 3.889016,1.986532 5.167969,3.830078 1.278953,1.808099 1.916016,4.343802 1.916016,7.605469 0,3.261671 -0.76338,5.726292 -2.291016,7.392578 -1.492093,1.666283 -3.391968,2.799647 -5.701172,3.402343 -2.273679,0.567227 -4.583001,0.851563 -6.927734,0.851563 H 54.511719 v 8.271484 1.298831 h 26.574219 c 3.623678,0 7.123049,-0.3342 10.498046,-1.007815 0.41706,-0.08238 0.813736,-0.194856 1.220704,-0.291016 2.921,-0.69017 5.597046,-1.712989 7.998042,-3.113281 2.73554,-1.630828 4.90328,-3.811139 6.50196,-6.541016 1.59868,-2.729877 2.39843,-6.135804 2.39843,-10.21289 0,-4.041635 -0.85332,-7.264985 -2.55859,-9.675781 -1.66972,-2.446254 -3.80112,-4.273126 -6.39453,-5.478516 -2.557887,-1.240853 -5.169495,-2.089922 -7.833984,-2.550781 2.344742,-0.567251 4.548845,-1.50855 6.609375,-2.820313 2.096049,-1.347216 3.783549,-3.101041 5.062499,-5.263672 1.27894,-2.162625 1.91602,-4.788643 1.91602,-7.873047 0,-3.580741 -0.74422,-6.558246 -2.23633,-8.933593 -1.49211,-2.410794 -3.51829,-4.306791 -6.076174,-5.689453 C 96.1395,29.606155 93.8521,28.737057 91.353516,28.123047 90.780644,27.982266 90.207701,27.84093 89.611328,27.728516 86.41397,27.12585 83.092527,26.824219 79.646484,26.824219 Z" />
  </g>
</svg>
