<?xml version="1.0" encoding="UTF-8" standalone="no"?>
<svg
   fill="none"
   viewBox="0 0 128 128"
   version="1.1"
   id="svg1"
   sodipodi:docname="favicon.svg"
   xml:space="preserve"
   inkscape:version="1.4 (86a8ad7, 2024-10-11)"
   xmlns:inkscape="http://www.inkscape.org/namespaces/inkscape"
   xmlns:sodipodi="http://sodipodi.sourceforge.net/DTD/sodipodi-0.dtd"
   xmlns="http://www.w3.org/2000/svg"
   xmlns:svg="http://www.w3.org/2000/svg"><defs
     id="defs1" /><sodipodi:namedview
     id="namedview1"
     pagecolor="#ffffff"
     bordercolor="#000000"
     borderopacity="0.25"
     inkscape:showpageshadow="2"
     inkscape:pageopacity="0.0"
     inkscape:pagecheckerboard="0"
     inkscape:deskcolor="#d1d1d1"
     inkscape:zoom="3.6855469"
     inkscape:cx="199.292"
     inkscape:cy="164.01908"
     inkscape:window-width="3840"
     inkscape:window-height="2089"
     inkscape:window-x="-8"
     inkscape:window-y="-8"
     inkscape:window-maximized="1"
     inkscape:current-layer="svg1" /><style
     id="style1">
    path {
      fill: #1e1e1e; /* Dark gray for light mode */
    }

    @media (prefers-color-scheme: dark) {
      path {
        fill: #eaeaea; /* Soft off-white for dark mode */
      }
    }
  </style><path
     id="path1"
     style="fill:#00d455;stroke-width:1.99634"
     d="M 96.414062 26.085938 C 92.490728 26.283728 88.251161 28.450035 86.195312 31.460938 C 85.373921 32.663915 85.09491 32.846344 81.208984 34.71875 C 71.479089 39.407024 59.412424 44.05324 39.298828 50.855469 C 29.088408 54.308537 25.177137 55.887257 21.550781 58.021484 C 12.466337 63.367965 5.4304464 71.651137 2.5175781 80.425781 C 0.19160031 87.432461 -0.39669269 95.333366 0.83984375 102.99023 C 1.2369224 105.44898 1.2446089 105.82606 0.90820312 106.85742 C 0.34505306 108.58391 0.36874047 112.89484 0.95117188 114.61328 C 2.6410344 119.59912 6.1699847 123.39665 11.375 125.82812 C 13.613051 126.8736 15.79146 127.51443 18.191406 127.83203 C 19.018736 127.94141 30.812815 128.01595 44.400391 127.99805 L 69.105469 127.96484 L 70.142578 127.41016 C 72.597842 126.09721 73.702433 123.46535 72.945312 120.73828 C 72.198175 118.04715 66.509096 114.60882 59.699219 112.73242 L 58.277344 112.33984 L 59.34375 110.66992 C 59.929798 109.75102 60.554588 108.63355 60.732422 108.1875 C 60.981687 107.56222 61.205236 107.37505 61.710938 107.37305 C 62.761525 107.3668 66.787538 106.45761 68.904297 105.74805 C 71.53921 104.8648 74.549335 103.42993 76.726562 102.02148 C 77.718288 101.37996 78.612397 100.9466 78.712891 101.05859 C 78.813388 101.17065 82.069574 106.99058 85.949219 113.99023 C 89.828866 120.98989 93.234363 126.92019 93.517578 127.16992 C 93.997703 127.59334 94.599438 127.61932 102.40625 127.54492 L 110.7793 127.46484 L 111.95703 126.77148 C 115.37168 124.76425 115.33958 119.67383 111.90039 117.94531 C 110.43421 117.20841 107.29788 116.59036 104.74609 116.53516 L 102.70703 116.49023 L 102.28906 114.74219 C 100.6239 107.79366 96.548621 100.74343 90.552734 94.4375 L 88.160156 91.921875 L 88.96875 90.728516 C 91.448652 87.071823 97.044963 80.107813 101.64648 74.951172 C 105.21148 70.9561 118.2333 58.035733 122.88086 53.882812 C 125.44799 51.588893 127.16827 49.855842 127.44727 49.28125 C 128.31392 47.496531 127.4678 41.947297 125.80469 38.503906 C 124.73279 36.284592 122.05207 33.59839 119.88672 32.574219 C 117.09474 31.253651 115.65555 30.973983 110.93359 30.835938 L 106.5957 30.708984 L 105.86914 29.882812 C 104.17149 27.949293 101.01254 26.426439 98.070312 26.125 C 97.530025 26.069646 96.974539 26.057682 96.414062 26.085938 z " /><path
     style="fill:#5599ff;stroke-width:6;stroke-linecap:round"
     d="m 57.793322,45.99046 0,-19.53577 L 16.144144,13.837837 57.523276,4.1006688 80.72072,7.7329094 112.33068,31.609962 Z"
     id="path2"
     sodipodi:nodetypes="ccccccc" /></svg>
